<mxfile host="app.diagrams.net" agent="Mozilla/5.0 (Windows NT 10.0; Win64; x64) AppleWebKit/537.36 (KHTML, like Gecko) Chrome/129.0.0.0 Safari/537.36" version="24.8.0">
  <diagram name="Page-1" id="np5jrO5eQlUYVUyfpIy2">
    <mxGraphModel dx="3148" dy="1198" grid="1" gridSize="10" guides="1" tooltips="1" connect="1" arrows="1" fold="1" page="1" pageScale="1" pageWidth="850" pageHeight="1100" math="0" shadow="0">
      <root>
        <mxCell id="0" />
        <mxCell id="1" parent="0" />
        <mxCell id="1VJ9Bwc3jtJmsIAEEO2N-201" value="" style="group" vertex="1" connectable="0" parent="1">
          <mxGeometry x="4" y="6" width="846.4300000000001" height="1396" as="geometry" />
        </mxCell>
        <mxCell id="1VJ9Bwc3jtJmsIAEEO2N-3" value="" style="edgeStyle=orthogonalEdgeStyle;rounded=0;orthogonalLoop=1;jettySize=auto;html=1;" edge="1" parent="1VJ9Bwc3jtJmsIAEEO2N-201" source="h0W4sVcvQnqJR9-wGSGQ-1" target="1VJ9Bwc3jtJmsIAEEO2N-2">
          <mxGeometry relative="1" as="geometry" />
        </mxCell>
        <mxCell id="h0W4sVcvQnqJR9-wGSGQ-1" value="mulai" style="rounded=1;whiteSpace=wrap;html=1;" parent="1VJ9Bwc3jtJmsIAEEO2N-201" vertex="1">
          <mxGeometry x="60" width="70" height="30" as="geometry" />
        </mxCell>
        <mxCell id="1VJ9Bwc3jtJmsIAEEO2N-6" value="" style="edgeStyle=orthogonalEdgeStyle;rounded=0;orthogonalLoop=1;jettySize=auto;html=1;" edge="1" parent="1VJ9Bwc3jtJmsIAEEO2N-201" source="1VJ9Bwc3jtJmsIAEEO2N-2" target="1VJ9Bwc3jtJmsIAEEO2N-5">
          <mxGeometry relative="1" as="geometry" />
        </mxCell>
        <mxCell id="1VJ9Bwc3jtJmsIAEEO2N-2" value="Apakah sudah punya akun?" style="shape=parallelogram;perimeter=parallelogramPerimeter;whiteSpace=wrap;html=1;fixedSize=1;" vertex="1" parent="1VJ9Bwc3jtJmsIAEEO2N-201">
          <mxGeometry x="38.75" y="60" width="112.5" height="50" as="geometry" />
        </mxCell>
        <mxCell id="1VJ9Bwc3jtJmsIAEEO2N-4" value="" style="endArrow=classic;html=1;rounded=0;entryX=0;entryY=0;entryDx=0;entryDy=0;" edge="1" parent="1VJ9Bwc3jtJmsIAEEO2N-201" target="1VJ9Bwc3jtJmsIAEEO2N-2">
          <mxGeometry width="50" height="50" relative="1" as="geometry">
            <mxPoint x="20" y="68" as="sourcePoint" />
            <mxPoint x="60" y="60" as="targetPoint" />
          </mxGeometry>
        </mxCell>
        <mxCell id="1VJ9Bwc3jtJmsIAEEO2N-8" value="" style="edgeStyle=orthogonalEdgeStyle;rounded=0;orthogonalLoop=1;jettySize=auto;html=1;" edge="1" parent="1VJ9Bwc3jtJmsIAEEO2N-201" source="1VJ9Bwc3jtJmsIAEEO2N-5" target="1VJ9Bwc3jtJmsIAEEO2N-7">
          <mxGeometry relative="1" as="geometry" />
        </mxCell>
        <mxCell id="1VJ9Bwc3jtJmsIAEEO2N-11" value="tidak" style="edgeLabel;html=1;align=center;verticalAlign=middle;resizable=0;points=[];" vertex="1" connectable="0" parent="1VJ9Bwc3jtJmsIAEEO2N-8">
          <mxGeometry x="-0.1913" relative="1" as="geometry">
            <mxPoint as="offset" />
          </mxGeometry>
        </mxCell>
        <mxCell id="1VJ9Bwc3jtJmsIAEEO2N-10" value="" style="edgeStyle=orthogonalEdgeStyle;rounded=0;orthogonalLoop=1;jettySize=auto;html=1;" edge="1" parent="1VJ9Bwc3jtJmsIAEEO2N-201" source="1VJ9Bwc3jtJmsIAEEO2N-5" target="1VJ9Bwc3jtJmsIAEEO2N-9">
          <mxGeometry relative="1" as="geometry" />
        </mxCell>
        <mxCell id="1VJ9Bwc3jtJmsIAEEO2N-22" value="ya" style="edgeLabel;html=1;align=center;verticalAlign=middle;resizable=0;points=[];" vertex="1" connectable="0" parent="1VJ9Bwc3jtJmsIAEEO2N-10">
          <mxGeometry x="0.3022" relative="1" as="geometry">
            <mxPoint y="-10" as="offset" />
          </mxGeometry>
        </mxCell>
        <mxCell id="1VJ9Bwc3jtJmsIAEEO2N-5" value="sudah punya" style="rhombus;whiteSpace=wrap;html=1;" vertex="1" parent="1VJ9Bwc3jtJmsIAEEO2N-201">
          <mxGeometry x="55" y="140" width="80" height="80" as="geometry" />
        </mxCell>
        <mxCell id="1VJ9Bwc3jtJmsIAEEO2N-16" style="edgeStyle=orthogonalEdgeStyle;rounded=0;orthogonalLoop=1;jettySize=auto;html=1;exitX=0.5;exitY=0;exitDx=0;exitDy=0;entryX=1;entryY=0.5;entryDx=0;entryDy=0;" edge="1" parent="1VJ9Bwc3jtJmsIAEEO2N-201" source="1VJ9Bwc3jtJmsIAEEO2N-7" target="1VJ9Bwc3jtJmsIAEEO2N-2">
          <mxGeometry relative="1" as="geometry">
            <Array as="points">
              <mxPoint x="230" y="85" />
            </Array>
          </mxGeometry>
        </mxCell>
        <mxCell id="1VJ9Bwc3jtJmsIAEEO2N-7" value="buat akun baru" style="whiteSpace=wrap;html=1;" vertex="1" parent="1VJ9Bwc3jtJmsIAEEO2N-201">
          <mxGeometry x="190" y="155" width="80" height="50" as="geometry" />
        </mxCell>
        <mxCell id="1VJ9Bwc3jtJmsIAEEO2N-13" value="" style="edgeStyle=orthogonalEdgeStyle;rounded=0;orthogonalLoop=1;jettySize=auto;html=1;" edge="1" parent="1VJ9Bwc3jtJmsIAEEO2N-201" source="1VJ9Bwc3jtJmsIAEEO2N-9" target="1VJ9Bwc3jtJmsIAEEO2N-12">
          <mxGeometry relative="1" as="geometry" />
        </mxCell>
        <mxCell id="1VJ9Bwc3jtJmsIAEEO2N-9" value="login" style="whiteSpace=wrap;html=1;" vertex="1" parent="1VJ9Bwc3jtJmsIAEEO2N-201">
          <mxGeometry x="57.5" y="260" width="75" height="40" as="geometry" />
        </mxCell>
        <mxCell id="1VJ9Bwc3jtJmsIAEEO2N-20" value="" style="edgeStyle=orthogonalEdgeStyle;rounded=0;orthogonalLoop=1;jettySize=auto;html=1;" edge="1" parent="1VJ9Bwc3jtJmsIAEEO2N-201" source="1VJ9Bwc3jtJmsIAEEO2N-12" target="1VJ9Bwc3jtJmsIAEEO2N-19">
          <mxGeometry relative="1" as="geometry" />
        </mxCell>
        <mxCell id="1VJ9Bwc3jtJmsIAEEO2N-12" value="masukkan&lt;div&gt;username dan password&lt;/div&gt;" style="shape=parallelogram;perimeter=parallelogramPerimeter;whiteSpace=wrap;html=1;fixedSize=1;" vertex="1" parent="1VJ9Bwc3jtJmsIAEEO2N-201">
          <mxGeometry x="37.5" y="320" width="115" height="50" as="geometry" />
        </mxCell>
        <mxCell id="1VJ9Bwc3jtJmsIAEEO2N-14" value="" style="endArrow=classic;html=1;rounded=0;entryX=0;entryY=0;entryDx=0;entryDy=0;" edge="1" parent="1VJ9Bwc3jtJmsIAEEO2N-201">
          <mxGeometry width="50" height="50" relative="1" as="geometry">
            <mxPoint x="19" y="330" as="sourcePoint" />
            <mxPoint x="55" y="330" as="targetPoint" />
          </mxGeometry>
        </mxCell>
        <mxCell id="1VJ9Bwc3jtJmsIAEEO2N-24" value="" style="edgeStyle=orthogonalEdgeStyle;rounded=0;orthogonalLoop=1;jettySize=auto;html=1;" edge="1" parent="1VJ9Bwc3jtJmsIAEEO2N-201" source="1VJ9Bwc3jtJmsIAEEO2N-19" target="1VJ9Bwc3jtJmsIAEEO2N-23">
          <mxGeometry relative="1" as="geometry" />
        </mxCell>
        <mxCell id="1VJ9Bwc3jtJmsIAEEO2N-33" value="tidak" style="edgeLabel;html=1;align=center;verticalAlign=middle;resizable=0;points=[];" vertex="1" connectable="0" parent="1VJ9Bwc3jtJmsIAEEO2N-24">
          <mxGeometry x="-0.1336" y="-1" relative="1" as="geometry">
            <mxPoint as="offset" />
          </mxGeometry>
        </mxCell>
        <mxCell id="1VJ9Bwc3jtJmsIAEEO2N-35" value="" style="edgeStyle=orthogonalEdgeStyle;rounded=0;orthogonalLoop=1;jettySize=auto;html=1;" edge="1" parent="1VJ9Bwc3jtJmsIAEEO2N-201" source="1VJ9Bwc3jtJmsIAEEO2N-19" target="1VJ9Bwc3jtJmsIAEEO2N-34">
          <mxGeometry relative="1" as="geometry" />
        </mxCell>
        <mxCell id="1VJ9Bwc3jtJmsIAEEO2N-36" value="ya" style="edgeLabel;html=1;align=center;verticalAlign=middle;resizable=0;points=[];" vertex="1" connectable="0" parent="1VJ9Bwc3jtJmsIAEEO2N-35">
          <mxGeometry x="-0.1292" relative="1" as="geometry">
            <mxPoint as="offset" />
          </mxGeometry>
        </mxCell>
        <mxCell id="1VJ9Bwc3jtJmsIAEEO2N-19" value="apakah&lt;br&gt;login&lt;br&gt;berhasil?" style="rhombus;whiteSpace=wrap;html=1;" vertex="1" parent="1VJ9Bwc3jtJmsIAEEO2N-201">
          <mxGeometry x="47.5" y="400" width="95" height="90" as="geometry" />
        </mxCell>
        <mxCell id="1VJ9Bwc3jtJmsIAEEO2N-26" value="" style="edgeStyle=orthogonalEdgeStyle;rounded=0;orthogonalLoop=1;jettySize=auto;html=1;" edge="1" parent="1VJ9Bwc3jtJmsIAEEO2N-201" source="1VJ9Bwc3jtJmsIAEEO2N-23" target="1VJ9Bwc3jtJmsIAEEO2N-25">
          <mxGeometry relative="1" as="geometry" />
        </mxCell>
        <mxCell id="1VJ9Bwc3jtJmsIAEEO2N-23" value="kesempatan berkurang 1" style="whiteSpace=wrap;html=1;" vertex="1" parent="1VJ9Bwc3jtJmsIAEEO2N-201">
          <mxGeometry x="190" y="422.5" width="80" height="45" as="geometry" />
        </mxCell>
        <mxCell id="1VJ9Bwc3jtJmsIAEEO2N-28" value="" style="edgeStyle=orthogonalEdgeStyle;rounded=0;orthogonalLoop=1;jettySize=auto;html=1;" edge="1" parent="1VJ9Bwc3jtJmsIAEEO2N-201" source="1VJ9Bwc3jtJmsIAEEO2N-25" target="1VJ9Bwc3jtJmsIAEEO2N-27">
          <mxGeometry relative="1" as="geometry" />
        </mxCell>
        <mxCell id="1VJ9Bwc3jtJmsIAEEO2N-30" value="ya" style="edgeLabel;html=1;align=center;verticalAlign=middle;resizable=0;points=[];" vertex="1" connectable="0" parent="1VJ9Bwc3jtJmsIAEEO2N-28">
          <mxGeometry x="-0.1125" y="-1" relative="1" as="geometry">
            <mxPoint y="-5" as="offset" />
          </mxGeometry>
        </mxCell>
        <mxCell id="1VJ9Bwc3jtJmsIAEEO2N-31" style="edgeStyle=orthogonalEdgeStyle;rounded=0;orthogonalLoop=1;jettySize=auto;html=1;exitX=1;exitY=0.5;exitDx=0;exitDy=0;entryX=1;entryY=0.5;entryDx=0;entryDy=0;" edge="1" parent="1VJ9Bwc3jtJmsIAEEO2N-201" source="1VJ9Bwc3jtJmsIAEEO2N-25" target="1VJ9Bwc3jtJmsIAEEO2N-9">
          <mxGeometry relative="1" as="geometry">
            <Array as="points">
              <mxPoint x="320" y="530" />
              <mxPoint x="320" y="280" />
            </Array>
          </mxGeometry>
        </mxCell>
        <mxCell id="1VJ9Bwc3jtJmsIAEEO2N-32" value="tidak" style="edgeLabel;html=1;align=center;verticalAlign=middle;resizable=0;points=[];" vertex="1" connectable="0" parent="1VJ9Bwc3jtJmsIAEEO2N-31">
          <mxGeometry x="-0.9262" relative="1" as="geometry">
            <mxPoint as="offset" />
          </mxGeometry>
        </mxCell>
        <mxCell id="1VJ9Bwc3jtJmsIAEEO2N-25" value="kesempatan = 0" style="rhombus;whiteSpace=wrap;html=1;" vertex="1" parent="1VJ9Bwc3jtJmsIAEEO2N-201">
          <mxGeometry x="180" y="480" width="100" height="100" as="geometry" />
        </mxCell>
        <mxCell id="1VJ9Bwc3jtJmsIAEEO2N-27" value="program berhenti" style="shape=parallelogram;perimeter=parallelogramPerimeter;whiteSpace=wrap;html=1;fixedSize=1;" vertex="1" parent="1VJ9Bwc3jtJmsIAEEO2N-201">
          <mxGeometry x="185" y="614" width="90" height="50" as="geometry" />
        </mxCell>
        <mxCell id="1VJ9Bwc3jtJmsIAEEO2N-29" value="" style="endArrow=classic;html=1;rounded=0;entryX=0;entryY=0;entryDx=0;entryDy=0;" edge="1" parent="1VJ9Bwc3jtJmsIAEEO2N-201">
          <mxGeometry width="50" height="50" relative="1" as="geometry">
            <mxPoint x="250" y="654" as="sourcePoint" />
            <mxPoint x="286" y="654" as="targetPoint" />
          </mxGeometry>
        </mxCell>
        <mxCell id="1VJ9Bwc3jtJmsIAEEO2N-44" value="" style="edgeStyle=orthogonalEdgeStyle;rounded=0;orthogonalLoop=1;jettySize=auto;html=1;" edge="1" parent="1VJ9Bwc3jtJmsIAEEO2N-201" source="1VJ9Bwc3jtJmsIAEEO2N-34" target="1VJ9Bwc3jtJmsIAEEO2N-42">
          <mxGeometry relative="1" as="geometry" />
        </mxCell>
        <mxCell id="1VJ9Bwc3jtJmsIAEEO2N-45" value="ya" style="edgeLabel;html=1;align=center;verticalAlign=middle;resizable=0;points=[];" vertex="1" connectable="0" parent="1VJ9Bwc3jtJmsIAEEO2N-44">
          <mxGeometry x="-0.0997" y="-1" relative="1" as="geometry">
            <mxPoint as="offset" />
          </mxGeometry>
        </mxCell>
        <mxCell id="1VJ9Bwc3jtJmsIAEEO2N-199" value="" style="edgeStyle=orthogonalEdgeStyle;rounded=0;orthogonalLoop=1;jettySize=auto;html=1;" edge="1" parent="1VJ9Bwc3jtJmsIAEEO2N-201" source="1VJ9Bwc3jtJmsIAEEO2N-34" target="1VJ9Bwc3jtJmsIAEEO2N-198">
          <mxGeometry relative="1" as="geometry" />
        </mxCell>
        <mxCell id="1VJ9Bwc3jtJmsIAEEO2N-34" value="login sebagai admin?" style="rhombus;whiteSpace=wrap;html=1;" vertex="1" parent="1VJ9Bwc3jtJmsIAEEO2N-201">
          <mxGeometry x="37.75" y="674.65" width="115" height="105" as="geometry" />
        </mxCell>
        <mxCell id="1VJ9Bwc3jtJmsIAEEO2N-47" value="" style="edgeStyle=orthogonalEdgeStyle;rounded=0;orthogonalLoop=1;jettySize=auto;html=1;" edge="1" parent="1VJ9Bwc3jtJmsIAEEO2N-201" source="1VJ9Bwc3jtJmsIAEEO2N-42" target="1VJ9Bwc3jtJmsIAEEO2N-46">
          <mxGeometry relative="1" as="geometry" />
        </mxCell>
        <mxCell id="1VJ9Bwc3jtJmsIAEEO2N-42" value="menampilkan&lt;div&gt;menu admin&lt;/div&gt;" style="shape=parallelogram;perimeter=parallelogramPerimeter;whiteSpace=wrap;html=1;fixedSize=1;" vertex="1" parent="1VJ9Bwc3jtJmsIAEEO2N-201">
          <mxGeometry x="39.75" y="809" width="110" height="47.85" as="geometry" />
        </mxCell>
        <mxCell id="1VJ9Bwc3jtJmsIAEEO2N-43" value="" style="endArrow=classic;html=1;rounded=0;entryX=0;entryY=0;entryDx=0;entryDy=0;" edge="1" parent="1VJ9Bwc3jtJmsIAEEO2N-201">
          <mxGeometry width="50" height="50" relative="1" as="geometry">
            <mxPoint x="117.75" y="850" as="sourcePoint" />
            <mxPoint x="153.75" y="850" as="targetPoint" />
          </mxGeometry>
        </mxCell>
        <mxCell id="1VJ9Bwc3jtJmsIAEEO2N-50" value="" style="edgeStyle=orthogonalEdgeStyle;rounded=0;orthogonalLoop=1;jettySize=auto;html=1;" edge="1" parent="1VJ9Bwc3jtJmsIAEEO2N-201" source="1VJ9Bwc3jtJmsIAEEO2N-46" target="1VJ9Bwc3jtJmsIAEEO2N-49">
          <mxGeometry relative="1" as="geometry" />
        </mxCell>
        <mxCell id="1VJ9Bwc3jtJmsIAEEO2N-46" value="input menu" style="shape=parallelogram;perimeter=parallelogramPerimeter;whiteSpace=wrap;html=1;fixedSize=1;" vertex="1" parent="1VJ9Bwc3jtJmsIAEEO2N-201">
          <mxGeometry x="39.75" y="885" width="110" height="47.85" as="geometry" />
        </mxCell>
        <mxCell id="1VJ9Bwc3jtJmsIAEEO2N-48" value="" style="endArrow=classic;html=1;rounded=0;entryX=0;entryY=0;entryDx=0;entryDy=0;" edge="1" parent="1VJ9Bwc3jtJmsIAEEO2N-201">
          <mxGeometry width="50" height="50" relative="1" as="geometry">
            <mxPoint x="25" y="893" as="sourcePoint" />
            <mxPoint x="61" y="893" as="targetPoint" />
          </mxGeometry>
        </mxCell>
        <mxCell id="1VJ9Bwc3jtJmsIAEEO2N-56" value="" style="edgeStyle=orthogonalEdgeStyle;rounded=0;orthogonalLoop=1;jettySize=auto;html=1;" edge="1" parent="1VJ9Bwc3jtJmsIAEEO2N-201" source="1VJ9Bwc3jtJmsIAEEO2N-49" target="1VJ9Bwc3jtJmsIAEEO2N-54">
          <mxGeometry relative="1" as="geometry" />
        </mxCell>
        <mxCell id="1VJ9Bwc3jtJmsIAEEO2N-57" value="ya" style="edgeLabel;html=1;align=center;verticalAlign=middle;resizable=0;points=[];" vertex="1" connectable="0" parent="1VJ9Bwc3jtJmsIAEEO2N-56">
          <mxGeometry x="0.4572" relative="1" as="geometry">
            <mxPoint y="-11" as="offset" />
          </mxGeometry>
        </mxCell>
        <mxCell id="1VJ9Bwc3jtJmsIAEEO2N-63" value="" style="edgeStyle=orthogonalEdgeStyle;rounded=0;orthogonalLoop=1;jettySize=auto;html=1;" edge="1" parent="1VJ9Bwc3jtJmsIAEEO2N-201" source="1VJ9Bwc3jtJmsIAEEO2N-49" target="1VJ9Bwc3jtJmsIAEEO2N-62">
          <mxGeometry relative="1" as="geometry" />
        </mxCell>
        <mxCell id="1VJ9Bwc3jtJmsIAEEO2N-64" value="tidak" style="edgeLabel;html=1;align=center;verticalAlign=middle;resizable=0;points=[];" vertex="1" connectable="0" parent="1VJ9Bwc3jtJmsIAEEO2N-63">
          <mxGeometry x="-0.0674" y="-1" relative="1" as="geometry">
            <mxPoint as="offset" />
          </mxGeometry>
        </mxCell>
        <mxCell id="1VJ9Bwc3jtJmsIAEEO2N-49" value="menu = 1" style="rhombus;whiteSpace=wrap;html=1;" vertex="1" parent="1VJ9Bwc3jtJmsIAEEO2N-201">
          <mxGeometry x="54.75" y="955.9949999999999" width="80" height="80" as="geometry" />
        </mxCell>
        <mxCell id="1VJ9Bwc3jtJmsIAEEO2N-59" value="" style="edgeStyle=orthogonalEdgeStyle;rounded=0;orthogonalLoop=1;jettySize=auto;html=1;" edge="1" parent="1VJ9Bwc3jtJmsIAEEO2N-201" source="1VJ9Bwc3jtJmsIAEEO2N-54" target="1VJ9Bwc3jtJmsIAEEO2N-58">
          <mxGeometry relative="1" as="geometry" />
        </mxCell>
        <mxCell id="1VJ9Bwc3jtJmsIAEEO2N-54" value="menampilkan&lt;div&gt;data pelanggan&lt;/div&gt;" style="shape=parallelogram;perimeter=parallelogramPerimeter;whiteSpace=wrap;html=1;fixedSize=1;" vertex="1" parent="1VJ9Bwc3jtJmsIAEEO2N-201">
          <mxGeometry x="34.75" y="1066" width="120.25" height="50" as="geometry" />
        </mxCell>
        <mxCell id="1VJ9Bwc3jtJmsIAEEO2N-55" value="" style="endArrow=classic;html=1;rounded=0;entryX=0;entryY=0;entryDx=0;entryDy=0;" edge="1" parent="1VJ9Bwc3jtJmsIAEEO2N-201">
          <mxGeometry width="50" height="50" relative="1" as="geometry">
            <mxPoint x="121.75" y="1109" as="sourcePoint" />
            <mxPoint x="157.75" y="1109" as="targetPoint" />
          </mxGeometry>
        </mxCell>
        <mxCell id="1VJ9Bwc3jtJmsIAEEO2N-61" style="edgeStyle=orthogonalEdgeStyle;rounded=0;orthogonalLoop=1;jettySize=auto;html=1;exitX=0.5;exitY=1;exitDx=0;exitDy=0;entryX=0;entryY=0.5;entryDx=0;entryDy=0;" edge="1" parent="1VJ9Bwc3jtJmsIAEEO2N-201" source="1VJ9Bwc3jtJmsIAEEO2N-58" target="1VJ9Bwc3jtJmsIAEEO2N-42">
          <mxGeometry relative="1" as="geometry">
            <Array as="points">
              <mxPoint x="95" y="1216" />
              <mxPoint y="1216" />
              <mxPoint y="833" />
            </Array>
          </mxGeometry>
        </mxCell>
        <mxCell id="1VJ9Bwc3jtJmsIAEEO2N-58" value="enter untuk&lt;div&gt;memilih lagi&lt;/div&gt;" style="shape=parallelogram;perimeter=parallelogramPerimeter;whiteSpace=wrap;html=1;fixedSize=1;" vertex="1" parent="1VJ9Bwc3jtJmsIAEEO2N-201">
          <mxGeometry x="34.629999999999995" y="1146" width="120.25" height="50" as="geometry" />
        </mxCell>
        <mxCell id="1VJ9Bwc3jtJmsIAEEO2N-60" value="" style="endArrow=classic;html=1;rounded=0;entryX=0;entryY=0;entryDx=0;entryDy=0;" edge="1" parent="1VJ9Bwc3jtJmsIAEEO2N-201">
          <mxGeometry width="50" height="50" relative="1" as="geometry">
            <mxPoint x="24" y="1156" as="sourcePoint" />
            <mxPoint x="60" y="1156" as="targetPoint" />
          </mxGeometry>
        </mxCell>
        <mxCell id="1VJ9Bwc3jtJmsIAEEO2N-66" value="" style="edgeStyle=orthogonalEdgeStyle;rounded=0;orthogonalLoop=1;jettySize=auto;html=1;" edge="1" parent="1VJ9Bwc3jtJmsIAEEO2N-201" source="1VJ9Bwc3jtJmsIAEEO2N-62" target="1VJ9Bwc3jtJmsIAEEO2N-65">
          <mxGeometry relative="1" as="geometry" />
        </mxCell>
        <mxCell id="1VJ9Bwc3jtJmsIAEEO2N-127" value="tidak" style="edgeLabel;html=1;align=center;verticalAlign=middle;resizable=0;points=[];" vertex="1" connectable="0" parent="1VJ9Bwc3jtJmsIAEEO2N-66">
          <mxGeometry x="-0.1689" relative="1" as="geometry">
            <mxPoint as="offset" />
          </mxGeometry>
        </mxCell>
        <mxCell id="1VJ9Bwc3jtJmsIAEEO2N-73" value="" style="edgeStyle=orthogonalEdgeStyle;rounded=0;orthogonalLoop=1;jettySize=auto;html=1;" edge="1" parent="1VJ9Bwc3jtJmsIAEEO2N-201" source="1VJ9Bwc3jtJmsIAEEO2N-62" target="1VJ9Bwc3jtJmsIAEEO2N-71">
          <mxGeometry relative="1" as="geometry" />
        </mxCell>
        <mxCell id="1VJ9Bwc3jtJmsIAEEO2N-74" value="ya" style="edgeLabel;html=1;align=center;verticalAlign=middle;resizable=0;points=[];" vertex="1" connectable="0" parent="1VJ9Bwc3jtJmsIAEEO2N-73">
          <mxGeometry x="-0.2598" relative="1" as="geometry">
            <mxPoint as="offset" />
          </mxGeometry>
        </mxCell>
        <mxCell id="1VJ9Bwc3jtJmsIAEEO2N-62" value="menu = 2" style="rhombus;whiteSpace=wrap;html=1;" vertex="1" parent="1VJ9Bwc3jtJmsIAEEO2N-201">
          <mxGeometry x="190" y="955.9949999999999" width="80" height="80" as="geometry" />
        </mxCell>
        <mxCell id="1VJ9Bwc3jtJmsIAEEO2N-68" value="" style="edgeStyle=orthogonalEdgeStyle;rounded=0;orthogonalLoop=1;jettySize=auto;html=1;" edge="1" parent="1VJ9Bwc3jtJmsIAEEO2N-201" source="1VJ9Bwc3jtJmsIAEEO2N-65" target="1VJ9Bwc3jtJmsIAEEO2N-67">
          <mxGeometry relative="1" as="geometry" />
        </mxCell>
        <mxCell id="1VJ9Bwc3jtJmsIAEEO2N-142" value="tidak" style="edgeLabel;html=1;align=center;verticalAlign=middle;resizable=0;points=[];" vertex="1" connectable="0" parent="1VJ9Bwc3jtJmsIAEEO2N-68">
          <mxGeometry x="-0.1268" y="1" relative="1" as="geometry">
            <mxPoint as="offset" />
          </mxGeometry>
        </mxCell>
        <mxCell id="1VJ9Bwc3jtJmsIAEEO2N-65" value="menu = 3" style="rhombus;whiteSpace=wrap;html=1;" vertex="1" parent="1VJ9Bwc3jtJmsIAEEO2N-201">
          <mxGeometry x="320" y="955.9949999999999" width="80" height="80" as="geometry" />
        </mxCell>
        <mxCell id="1VJ9Bwc3jtJmsIAEEO2N-70" value="" style="edgeStyle=orthogonalEdgeStyle;rounded=0;orthogonalLoop=1;jettySize=auto;html=1;" edge="1" parent="1VJ9Bwc3jtJmsIAEEO2N-201" source="1VJ9Bwc3jtJmsIAEEO2N-67" target="1VJ9Bwc3jtJmsIAEEO2N-69">
          <mxGeometry relative="1" as="geometry" />
        </mxCell>
        <mxCell id="1VJ9Bwc3jtJmsIAEEO2N-153" value="tidak" style="edgeLabel;html=1;align=center;verticalAlign=middle;resizable=0;points=[];" vertex="1" connectable="0" parent="1VJ9Bwc3jtJmsIAEEO2N-70">
          <mxGeometry x="-0.0035" y="-1" relative="1" as="geometry">
            <mxPoint as="offset" />
          </mxGeometry>
        </mxCell>
        <mxCell id="1VJ9Bwc3jtJmsIAEEO2N-67" value="menu = 4" style="rhombus;whiteSpace=wrap;html=1;" vertex="1" parent="1VJ9Bwc3jtJmsIAEEO2N-201">
          <mxGeometry x="458" y="955.9949999999999" width="80" height="80" as="geometry" />
        </mxCell>
        <mxCell id="1VJ9Bwc3jtJmsIAEEO2N-165" value="" style="edgeStyle=orthogonalEdgeStyle;rounded=0;orthogonalLoop=1;jettySize=auto;html=1;" edge="1" parent="1VJ9Bwc3jtJmsIAEEO2N-201" source="1VJ9Bwc3jtJmsIAEEO2N-69" target="1VJ9Bwc3jtJmsIAEEO2N-163">
          <mxGeometry relative="1" as="geometry" />
        </mxCell>
        <mxCell id="1VJ9Bwc3jtJmsIAEEO2N-69" value="menu = 5" style="rhombus;whiteSpace=wrap;html=1;" vertex="1" parent="1VJ9Bwc3jtJmsIAEEO2N-201">
          <mxGeometry x="610" y="955.9949999999999" width="80" height="80" as="geometry" />
        </mxCell>
        <mxCell id="1VJ9Bwc3jtJmsIAEEO2N-108" value="" style="edgeStyle=orthogonalEdgeStyle;rounded=0;orthogonalLoop=1;jettySize=auto;html=1;entryX=0.5;entryY=0;entryDx=0;entryDy=0;exitX=0.5;exitY=1;exitDx=0;exitDy=0;" edge="1" parent="1VJ9Bwc3jtJmsIAEEO2N-201">
          <mxGeometry relative="1" as="geometry">
            <mxPoint x="230.25" y="1126" as="sourcePoint" />
            <mxPoint x="229.625" y="1154" as="targetPoint" />
            <Array as="points" />
          </mxGeometry>
        </mxCell>
        <mxCell id="1VJ9Bwc3jtJmsIAEEO2N-71" value="masukkan nama, tanggal, paket, dan harga baru" style="shape=parallelogram;perimeter=parallelogramPerimeter;whiteSpace=wrap;html=1;fixedSize=1;" vertex="1" parent="1VJ9Bwc3jtJmsIAEEO2N-201">
          <mxGeometry x="165.5" y="1066" width="129.5" height="60" as="geometry" />
        </mxCell>
        <mxCell id="1VJ9Bwc3jtJmsIAEEO2N-72" value="" style="endArrow=classic;html=1;rounded=0;entryX=0;entryY=0;entryDx=0;entryDy=0;" edge="1" parent="1VJ9Bwc3jtJmsIAEEO2N-201">
          <mxGeometry width="50" height="50" relative="1" as="geometry">
            <mxPoint x="162" y="1072" as="sourcePoint" />
            <mxPoint x="198" y="1072" as="targetPoint" />
          </mxGeometry>
        </mxCell>
        <mxCell id="1VJ9Bwc3jtJmsIAEEO2N-120" value="data berhasil ditambahkan" style="shape=parallelogram;perimeter=parallelogramPerimeter;whiteSpace=wrap;html=1;fixedSize=1;" vertex="1" parent="1VJ9Bwc3jtJmsIAEEO2N-201">
          <mxGeometry x="170.5" y="1154" width="120.25" height="50" as="geometry" />
        </mxCell>
        <mxCell id="1VJ9Bwc3jtJmsIAEEO2N-121" value="" style="endArrow=classic;html=1;rounded=0;entryX=0;entryY=0;entryDx=0;entryDy=0;" edge="1" parent="1VJ9Bwc3jtJmsIAEEO2N-201">
          <mxGeometry width="50" height="50" relative="1" as="geometry">
            <mxPoint x="258" y="1193" as="sourcePoint" />
            <mxPoint x="294" y="1193" as="targetPoint" />
          </mxGeometry>
        </mxCell>
        <mxCell id="1VJ9Bwc3jtJmsIAEEO2N-122" value="" style="edgeStyle=orthogonalEdgeStyle;rounded=0;orthogonalLoop=1;jettySize=auto;html=1;" edge="1" parent="1VJ9Bwc3jtJmsIAEEO2N-201" target="1VJ9Bwc3jtJmsIAEEO2N-123">
          <mxGeometry relative="1" as="geometry">
            <mxPoint x="230" y="1199" as="sourcePoint" />
          </mxGeometry>
        </mxCell>
        <mxCell id="1VJ9Bwc3jtJmsIAEEO2N-126" style="edgeStyle=orthogonalEdgeStyle;rounded=0;orthogonalLoop=1;jettySize=auto;html=1;exitX=0.5;exitY=1;exitDx=0;exitDy=0;entryX=0;entryY=0.5;entryDx=0;entryDy=0;" edge="1" parent="1VJ9Bwc3jtJmsIAEEO2N-201" source="1VJ9Bwc3jtJmsIAEEO2N-123" target="1VJ9Bwc3jtJmsIAEEO2N-42">
          <mxGeometry relative="1" as="geometry">
            <Array as="points">
              <mxPoint x="231" y="1396" />
              <mxPoint y="1396" />
              <mxPoint y="833" />
            </Array>
          </mxGeometry>
        </mxCell>
        <mxCell id="1VJ9Bwc3jtJmsIAEEO2N-123" value="enter untuk&lt;div&gt;memilih lagi&lt;/div&gt;" style="shape=parallelogram;perimeter=parallelogramPerimeter;whiteSpace=wrap;html=1;fixedSize=1;" vertex="1" parent="1VJ9Bwc3jtJmsIAEEO2N-201">
          <mxGeometry x="170.5" y="1229" width="120.25" height="50" as="geometry" />
        </mxCell>
        <mxCell id="1VJ9Bwc3jtJmsIAEEO2N-124" value="" style="endArrow=classic;html=1;rounded=0;entryX=0;entryY=0;entryDx=0;entryDy=0;" edge="1" parent="1VJ9Bwc3jtJmsIAEEO2N-201">
          <mxGeometry width="50" height="50" relative="1" as="geometry">
            <mxPoint x="162" y="1236" as="sourcePoint" />
            <mxPoint x="198" y="1236" as="targetPoint" />
          </mxGeometry>
        </mxCell>
        <mxCell id="1VJ9Bwc3jtJmsIAEEO2N-129" value="" style="edgeStyle=orthogonalEdgeStyle;rounded=0;orthogonalLoop=1;jettySize=auto;html=1;" edge="1" parent="1VJ9Bwc3jtJmsIAEEO2N-201" target="1VJ9Bwc3jtJmsIAEEO2N-130">
          <mxGeometry relative="1" as="geometry">
            <mxPoint x="360.13" y="1036" as="sourcePoint" />
          </mxGeometry>
        </mxCell>
        <mxCell id="1VJ9Bwc3jtJmsIAEEO2N-161" value="ya" style="edgeLabel;html=1;align=center;verticalAlign=middle;resizable=0;points=[];" vertex="1" connectable="0" parent="1VJ9Bwc3jtJmsIAEEO2N-129">
          <mxGeometry x="-0.2958" relative="1" as="geometry">
            <mxPoint as="offset" />
          </mxGeometry>
        </mxCell>
        <mxCell id="1VJ9Bwc3jtJmsIAEEO2N-130" value="masukkan nomor pelanggan yang&lt;div&gt;ingin diubah&lt;/div&gt;" style="shape=parallelogram;perimeter=parallelogramPerimeter;whiteSpace=wrap;html=1;fixedSize=1;" vertex="1" parent="1VJ9Bwc3jtJmsIAEEO2N-201">
          <mxGeometry x="296.30999999999995" y="1066" width="129.37" height="60" as="geometry" />
        </mxCell>
        <mxCell id="1VJ9Bwc3jtJmsIAEEO2N-131" value="" style="endArrow=classic;html=1;rounded=0;entryX=0;entryY=0;entryDx=0;entryDy=0;" edge="1" parent="1VJ9Bwc3jtJmsIAEEO2N-201">
          <mxGeometry width="50" height="50" relative="1" as="geometry">
            <mxPoint x="292.13" y="1073" as="sourcePoint" />
            <mxPoint x="328.13" y="1073" as="targetPoint" />
          </mxGeometry>
        </mxCell>
        <mxCell id="1VJ9Bwc3jtJmsIAEEO2N-132" value="" style="edgeStyle=orthogonalEdgeStyle;rounded=0;orthogonalLoop=1;jettySize=auto;html=1;" edge="1" parent="1VJ9Bwc3jtJmsIAEEO2N-201" target="1VJ9Bwc3jtJmsIAEEO2N-133">
          <mxGeometry relative="1" as="geometry">
            <mxPoint x="358.75" y="1126" as="sourcePoint" />
          </mxGeometry>
        </mxCell>
        <mxCell id="1VJ9Bwc3jtJmsIAEEO2N-133" value="masukkan&lt;div&gt;perubahan data&lt;/div&gt;" style="shape=parallelogram;perimeter=parallelogramPerimeter;whiteSpace=wrap;html=1;fixedSize=1;" vertex="1" parent="1VJ9Bwc3jtJmsIAEEO2N-201">
          <mxGeometry x="299.25" y="1156" width="120.25" height="50" as="geometry" />
        </mxCell>
        <mxCell id="1VJ9Bwc3jtJmsIAEEO2N-134" value="" style="endArrow=classic;html=1;rounded=0;entryX=0;entryY=0;entryDx=0;entryDy=0;" edge="1" parent="1VJ9Bwc3jtJmsIAEEO2N-201">
          <mxGeometry width="50" height="50" relative="1" as="geometry">
            <mxPoint x="290.75" y="1163" as="sourcePoint" />
            <mxPoint x="326.75" y="1163" as="targetPoint" />
          </mxGeometry>
        </mxCell>
        <mxCell id="1VJ9Bwc3jtJmsIAEEO2N-135" value="" style="edgeStyle=orthogonalEdgeStyle;rounded=0;orthogonalLoop=1;jettySize=auto;html=1;" edge="1" parent="1VJ9Bwc3jtJmsIAEEO2N-201" target="1VJ9Bwc3jtJmsIAEEO2N-136">
          <mxGeometry relative="1" as="geometry">
            <mxPoint x="358.75" y="1206" as="sourcePoint" />
          </mxGeometry>
        </mxCell>
        <mxCell id="1VJ9Bwc3jtJmsIAEEO2N-136" value="data berhasil&lt;div&gt;diubah&lt;/div&gt;" style="shape=parallelogram;perimeter=parallelogramPerimeter;whiteSpace=wrap;html=1;fixedSize=1;" vertex="1" parent="1VJ9Bwc3jtJmsIAEEO2N-201">
          <mxGeometry x="299.25" y="1236" width="120.25" height="50" as="geometry" />
        </mxCell>
        <mxCell id="1VJ9Bwc3jtJmsIAEEO2N-137" value="" style="endArrow=classic;html=1;rounded=0;entryX=0;entryY=0;entryDx=0;entryDy=0;" edge="1" parent="1VJ9Bwc3jtJmsIAEEO2N-201">
          <mxGeometry width="50" height="50" relative="1" as="geometry">
            <mxPoint x="389.68000000000006" y="1278" as="sourcePoint" />
            <mxPoint x="425.68000000000006" y="1278" as="targetPoint" />
          </mxGeometry>
        </mxCell>
        <mxCell id="1VJ9Bwc3jtJmsIAEEO2N-138" value="" style="edgeStyle=orthogonalEdgeStyle;rounded=0;orthogonalLoop=1;jettySize=auto;html=1;" edge="1" parent="1VJ9Bwc3jtJmsIAEEO2N-201" target="1VJ9Bwc3jtJmsIAEEO2N-139">
          <mxGeometry relative="1" as="geometry">
            <mxPoint x="358.75" y="1286" as="sourcePoint" />
          </mxGeometry>
        </mxCell>
        <mxCell id="1VJ9Bwc3jtJmsIAEEO2N-141" style="edgeStyle=orthogonalEdgeStyle;rounded=0;orthogonalLoop=1;jettySize=auto;html=1;exitX=0.5;exitY=1;exitDx=0;exitDy=0;entryX=0;entryY=0.5;entryDx=0;entryDy=0;" edge="1" parent="1VJ9Bwc3jtJmsIAEEO2N-201" source="1VJ9Bwc3jtJmsIAEEO2N-139" target="1VJ9Bwc3jtJmsIAEEO2N-42">
          <mxGeometry relative="1" as="geometry">
            <Array as="points">
              <mxPoint x="359" y="1396" />
              <mxPoint y="1396" />
              <mxPoint y="833" />
            </Array>
          </mxGeometry>
        </mxCell>
        <mxCell id="1VJ9Bwc3jtJmsIAEEO2N-139" value="enter untuk&lt;div&gt;memilih lagi&lt;/div&gt;" style="shape=parallelogram;perimeter=parallelogramPerimeter;whiteSpace=wrap;html=1;fixedSize=1;" vertex="1" parent="1VJ9Bwc3jtJmsIAEEO2N-201">
          <mxGeometry x="299.25" y="1316" width="120.25" height="50" as="geometry" />
        </mxCell>
        <mxCell id="1VJ9Bwc3jtJmsIAEEO2N-140" value="" style="endArrow=classic;html=1;rounded=0;entryX=0;entryY=0;entryDx=0;entryDy=0;" edge="1" parent="1VJ9Bwc3jtJmsIAEEO2N-201">
          <mxGeometry width="50" height="50" relative="1" as="geometry">
            <mxPoint x="290.75" y="1323" as="sourcePoint" />
            <mxPoint x="326.75" y="1323" as="targetPoint" />
          </mxGeometry>
        </mxCell>
        <mxCell id="1VJ9Bwc3jtJmsIAEEO2N-143" value="" style="edgeStyle=orthogonalEdgeStyle;rounded=0;orthogonalLoop=1;jettySize=auto;html=1;" edge="1" parent="1VJ9Bwc3jtJmsIAEEO2N-201" target="1VJ9Bwc3jtJmsIAEEO2N-144">
          <mxGeometry relative="1" as="geometry">
            <mxPoint x="498.22" y="1036" as="sourcePoint" />
          </mxGeometry>
        </mxCell>
        <mxCell id="1VJ9Bwc3jtJmsIAEEO2N-160" value="ya" style="edgeLabel;html=1;align=center;verticalAlign=middle;resizable=0;points=[];" vertex="1" connectable="0" parent="1VJ9Bwc3jtJmsIAEEO2N-143">
          <mxGeometry x="-0.2447" y="1" relative="1" as="geometry">
            <mxPoint y="3" as="offset" />
          </mxGeometry>
        </mxCell>
        <mxCell id="1VJ9Bwc3jtJmsIAEEO2N-144" value="masukkan nomor pelanggan yang&lt;div&gt;ingin dihapus&lt;/div&gt;" style="shape=parallelogram;perimeter=parallelogramPerimeter;whiteSpace=wrap;html=1;fixedSize=1;" vertex="1" parent="1VJ9Bwc3jtJmsIAEEO2N-201">
          <mxGeometry x="434.4" y="1066" width="129.37" height="60" as="geometry" />
        </mxCell>
        <mxCell id="1VJ9Bwc3jtJmsIAEEO2N-145" value="" style="endArrow=classic;html=1;rounded=0;entryX=0;entryY=0;entryDx=0;entryDy=0;" edge="1" parent="1VJ9Bwc3jtJmsIAEEO2N-201">
          <mxGeometry width="50" height="50" relative="1" as="geometry">
            <mxPoint x="430.22" y="1073" as="sourcePoint" />
            <mxPoint x="466.22" y="1073" as="targetPoint" />
          </mxGeometry>
        </mxCell>
        <mxCell id="1VJ9Bwc3jtJmsIAEEO2N-146" value="" style="edgeStyle=orthogonalEdgeStyle;rounded=0;orthogonalLoop=1;jettySize=auto;html=1;" edge="1" parent="1VJ9Bwc3jtJmsIAEEO2N-201" target="1VJ9Bwc3jtJmsIAEEO2N-147">
          <mxGeometry relative="1" as="geometry">
            <mxPoint x="496.84000000000003" y="1126" as="sourcePoint" />
          </mxGeometry>
        </mxCell>
        <mxCell id="1VJ9Bwc3jtJmsIAEEO2N-147" value="data berhasil&lt;div&gt;dihapus&lt;/div&gt;" style="shape=parallelogram;perimeter=parallelogramPerimeter;whiteSpace=wrap;html=1;fixedSize=1;" vertex="1" parent="1VJ9Bwc3jtJmsIAEEO2N-201">
          <mxGeometry x="437.34000000000003" y="1156" width="120.25" height="50" as="geometry" />
        </mxCell>
        <mxCell id="1VJ9Bwc3jtJmsIAEEO2N-148" value="" style="endArrow=classic;html=1;rounded=0;entryX=0;entryY=0;entryDx=0;entryDy=0;" edge="1" parent="1VJ9Bwc3jtJmsIAEEO2N-201">
          <mxGeometry width="50" height="50" relative="1" as="geometry">
            <mxPoint x="527.7700000000001" y="1198" as="sourcePoint" />
            <mxPoint x="563.7700000000001" y="1198" as="targetPoint" />
          </mxGeometry>
        </mxCell>
        <mxCell id="1VJ9Bwc3jtJmsIAEEO2N-149" value="" style="edgeStyle=orthogonalEdgeStyle;rounded=0;orthogonalLoop=1;jettySize=auto;html=1;" edge="1" parent="1VJ9Bwc3jtJmsIAEEO2N-201" target="1VJ9Bwc3jtJmsIAEEO2N-150">
          <mxGeometry relative="1" as="geometry">
            <mxPoint x="496.84000000000003" y="1206" as="sourcePoint" />
          </mxGeometry>
        </mxCell>
        <mxCell id="1VJ9Bwc3jtJmsIAEEO2N-152" style="edgeStyle=orthogonalEdgeStyle;rounded=0;orthogonalLoop=1;jettySize=auto;html=1;exitX=0.5;exitY=1;exitDx=0;exitDy=0;entryX=0;entryY=0.5;entryDx=0;entryDy=0;" edge="1" parent="1VJ9Bwc3jtJmsIAEEO2N-201" source="1VJ9Bwc3jtJmsIAEEO2N-150" target="1VJ9Bwc3jtJmsIAEEO2N-42">
          <mxGeometry relative="1" as="geometry">
            <Array as="points">
              <mxPoint x="498" y="1396" />
              <mxPoint y="1396" />
              <mxPoint y="833" />
            </Array>
          </mxGeometry>
        </mxCell>
        <mxCell id="1VJ9Bwc3jtJmsIAEEO2N-150" value="enter untuk&lt;div&gt;memilih lagi&lt;/div&gt;" style="shape=parallelogram;perimeter=parallelogramPerimeter;whiteSpace=wrap;html=1;fixedSize=1;" vertex="1" parent="1VJ9Bwc3jtJmsIAEEO2N-201">
          <mxGeometry x="437.34000000000003" y="1236" width="120.25" height="50" as="geometry" />
        </mxCell>
        <mxCell id="1VJ9Bwc3jtJmsIAEEO2N-151" value="" style="endArrow=classic;html=1;rounded=0;entryX=0;entryY=0;entryDx=0;entryDy=0;" edge="1" parent="1VJ9Bwc3jtJmsIAEEO2N-201">
          <mxGeometry width="50" height="50" relative="1" as="geometry">
            <mxPoint x="430.0000000000001" y="1243" as="sourcePoint" />
            <mxPoint x="466.0000000000001" y="1243" as="targetPoint" />
          </mxGeometry>
        </mxCell>
        <mxCell id="1VJ9Bwc3jtJmsIAEEO2N-154" value="" style="edgeStyle=orthogonalEdgeStyle;rounded=0;orthogonalLoop=1;jettySize=auto;html=1;" edge="1" parent="1VJ9Bwc3jtJmsIAEEO2N-201" target="1VJ9Bwc3jtJmsIAEEO2N-155">
          <mxGeometry relative="1" as="geometry">
            <mxPoint x="649.5" y="1035.99" as="sourcePoint" />
          </mxGeometry>
        </mxCell>
        <mxCell id="1VJ9Bwc3jtJmsIAEEO2N-159" value="ya" style="edgeLabel;html=1;align=center;verticalAlign=middle;resizable=0;points=[];" vertex="1" connectable="0" parent="1VJ9Bwc3jtJmsIAEEO2N-154">
          <mxGeometry x="-0.2383" y="1" relative="1" as="geometry">
            <mxPoint x="1" y="3" as="offset" />
          </mxGeometry>
        </mxCell>
        <mxCell id="1VJ9Bwc3jtJmsIAEEO2N-158" value="" style="edgeStyle=orthogonalEdgeStyle;rounded=0;orthogonalLoop=1;jettySize=auto;html=1;" edge="1" parent="1VJ9Bwc3jtJmsIAEEO2N-201" source="1VJ9Bwc3jtJmsIAEEO2N-155" target="1VJ9Bwc3jtJmsIAEEO2N-157">
          <mxGeometry relative="1" as="geometry" />
        </mxCell>
        <mxCell id="1VJ9Bwc3jtJmsIAEEO2N-155" value="keluar dari&lt;div&gt;program&lt;/div&gt;" style="shape=parallelogram;perimeter=parallelogramPerimeter;whiteSpace=wrap;html=1;fixedSize=1;" vertex="1" parent="1VJ9Bwc3jtJmsIAEEO2N-201">
          <mxGeometry x="590" y="1065.99" width="120.25" height="50" as="geometry" />
        </mxCell>
        <mxCell id="1VJ9Bwc3jtJmsIAEEO2N-156" value="" style="endArrow=classic;html=1;rounded=0;entryX=0;entryY=0;entryDx=0;entryDy=0;" edge="1" parent="1VJ9Bwc3jtJmsIAEEO2N-201">
          <mxGeometry width="50" height="50" relative="1" as="geometry">
            <mxPoint x="680.4300000000001" y="1107.99" as="sourcePoint" />
            <mxPoint x="716.4300000000001" y="1107.99" as="targetPoint" />
          </mxGeometry>
        </mxCell>
        <mxCell id="1VJ9Bwc3jtJmsIAEEO2N-157" value="selesai" style="rounded=1;whiteSpace=wrap;html=1;" vertex="1" parent="1VJ9Bwc3jtJmsIAEEO2N-201">
          <mxGeometry x="620.13" y="1136" width="60" height="30" as="geometry" />
        </mxCell>
        <mxCell id="1VJ9Bwc3jtJmsIAEEO2N-197" style="edgeStyle=orthogonalEdgeStyle;rounded=0;orthogonalLoop=1;jettySize=auto;html=1;exitX=0.5;exitY=0;exitDx=0;exitDy=0;entryX=1;entryY=0.5;entryDx=0;entryDy=0;" edge="1" parent="1VJ9Bwc3jtJmsIAEEO2N-201" source="1VJ9Bwc3jtJmsIAEEO2N-163" target="1VJ9Bwc3jtJmsIAEEO2N-42">
          <mxGeometry relative="1" as="geometry">
            <Array as="points">
              <mxPoint x="780" y="833" />
            </Array>
          </mxGeometry>
        </mxCell>
        <mxCell id="1VJ9Bwc3jtJmsIAEEO2N-163" value="menu tidak&lt;div&gt;tersedia&lt;/div&gt;" style="shape=parallelogram;perimeter=parallelogramPerimeter;whiteSpace=wrap;html=1;fixedSize=1;" vertex="1" parent="1VJ9Bwc3jtJmsIAEEO2N-201">
          <mxGeometry x="720" y="971" width="120.25" height="50" as="geometry" />
        </mxCell>
        <mxCell id="1VJ9Bwc3jtJmsIAEEO2N-164" value="" style="endArrow=classic;html=1;rounded=0;entryX=0;entryY=0;entryDx=0;entryDy=0;" edge="1" parent="1VJ9Bwc3jtJmsIAEEO2N-201">
          <mxGeometry width="50" height="50" relative="1" as="geometry">
            <mxPoint x="810.4300000000001" y="1013" as="sourcePoint" />
            <mxPoint x="846.4300000000001" y="1013" as="targetPoint" />
          </mxGeometry>
        </mxCell>
        <mxCell id="1VJ9Bwc3jtJmsIAEEO2N-198" value="user" style="shape=offPageConnector;whiteSpace=wrap;html=1;" vertex="1" parent="1VJ9Bwc3jtJmsIAEEO2N-201">
          <mxGeometry x="210" y="697.15" width="60" height="60" as="geometry" />
        </mxCell>
        <mxCell id="1VJ9Bwc3jtJmsIAEEO2N-245" value="" style="group" vertex="1" connectable="0" parent="1">
          <mxGeometry x="1010" y="60" width="598.1800000000001" height="567" as="geometry" />
        </mxCell>
        <mxCell id="1VJ9Bwc3jtJmsIAEEO2N-202" value="" style="edgeStyle=orthogonalEdgeStyle;rounded=0;orthogonalLoop=1;jettySize=auto;html=1;" edge="1" parent="1VJ9Bwc3jtJmsIAEEO2N-245" source="1VJ9Bwc3jtJmsIAEEO2N-203" target="1VJ9Bwc3jtJmsIAEEO2N-205">
          <mxGeometry relative="1" as="geometry" />
        </mxCell>
        <mxCell id="1VJ9Bwc3jtJmsIAEEO2N-203" value="user" style="shape=offPageConnector;whiteSpace=wrap;html=1;" vertex="1" parent="1VJ9Bwc3jtJmsIAEEO2N-245">
          <mxGeometry x="59.75" width="60" height="50" as="geometry" />
        </mxCell>
        <mxCell id="1VJ9Bwc3jtJmsIAEEO2N-204" value="" style="edgeStyle=orthogonalEdgeStyle;rounded=0;orthogonalLoop=1;jettySize=auto;html=1;" edge="1" parent="1VJ9Bwc3jtJmsIAEEO2N-245" source="1VJ9Bwc3jtJmsIAEEO2N-205">
          <mxGeometry relative="1" as="geometry">
            <mxPoint x="89.84615384615381" y="155.5" as="targetPoint" />
          </mxGeometry>
        </mxCell>
        <mxCell id="1VJ9Bwc3jtJmsIAEEO2N-205" value="menampilkan&lt;div&gt;menu user&lt;/div&gt;" style="shape=parallelogram;perimeter=parallelogramPerimeter;whiteSpace=wrap;html=1;fixedSize=1;" vertex="1" parent="1VJ9Bwc3jtJmsIAEEO2N-245">
          <mxGeometry x="35" y="78" width="110" height="47.85" as="geometry" />
        </mxCell>
        <mxCell id="1VJ9Bwc3jtJmsIAEEO2N-206" value="" style="endArrow=classic;html=1;rounded=0;entryX=0;entryY=0;entryDx=0;entryDy=0;" edge="1" parent="1VJ9Bwc3jtJmsIAEEO2N-245">
          <mxGeometry width="50" height="50" relative="1" as="geometry">
            <mxPoint x="115" y="118" as="sourcePoint" />
            <mxPoint x="151" y="118" as="targetPoint" />
          </mxGeometry>
        </mxCell>
        <mxCell id="1VJ9Bwc3jtJmsIAEEO2N-207" value="" style="edgeStyle=orthogonalEdgeStyle;rounded=0;orthogonalLoop=1;jettySize=auto;html=1;" edge="1" parent="1VJ9Bwc3jtJmsIAEEO2N-245" source="1VJ9Bwc3jtJmsIAEEO2N-208" target="1VJ9Bwc3jtJmsIAEEO2N-214">
          <mxGeometry relative="1" as="geometry" />
        </mxCell>
        <mxCell id="1VJ9Bwc3jtJmsIAEEO2N-208" value="menu = 3" style="rhombus;whiteSpace=wrap;html=1;" vertex="1" parent="1VJ9Bwc3jtJmsIAEEO2N-245">
          <mxGeometry x="361.75" y="225.8549999999998" width="80" height="80" as="geometry" />
        </mxCell>
        <mxCell id="1VJ9Bwc3jtJmsIAEEO2N-209" value="" style="edgeStyle=orthogonalEdgeStyle;rounded=0;orthogonalLoop=1;jettySize=auto;html=1;" edge="1" parent="1VJ9Bwc3jtJmsIAEEO2N-245" source="1VJ9Bwc3jtJmsIAEEO2N-233" target="1VJ9Bwc3jtJmsIAEEO2N-208">
          <mxGeometry relative="1" as="geometry" />
        </mxCell>
        <mxCell id="1VJ9Bwc3jtJmsIAEEO2N-210" value="ya" style="edgeLabel;html=1;align=center;verticalAlign=middle;resizable=0;points=[];" vertex="1" connectable="0" parent="1VJ9Bwc3jtJmsIAEEO2N-245">
          <mxGeometry x="400.3073708131383" y="320.00302415670615" as="geometry" />
        </mxCell>
        <mxCell id="1VJ9Bwc3jtJmsIAEEO2N-211" value="" style="edgeStyle=orthogonalEdgeStyle;rounded=0;orthogonalLoop=1;jettySize=auto;html=1;" edge="1" parent="1VJ9Bwc3jtJmsIAEEO2N-245" source="1VJ9Bwc3jtJmsIAEEO2N-212" target="1VJ9Bwc3jtJmsIAEEO2N-214">
          <mxGeometry relative="1" as="geometry" />
        </mxCell>
        <mxCell id="1VJ9Bwc3jtJmsIAEEO2N-212" value="keluar dari&lt;div&gt;program&lt;/div&gt;" style="shape=parallelogram;perimeter=parallelogramPerimeter;whiteSpace=wrap;html=1;fixedSize=1;" vertex="1" parent="1VJ9Bwc3jtJmsIAEEO2N-245">
          <mxGeometry x="338.53999999999996" y="335.7800000000001" width="120.25" height="50" as="geometry" />
        </mxCell>
        <mxCell id="1VJ9Bwc3jtJmsIAEEO2N-213" value="" style="endArrow=classic;html=1;rounded=0;entryX=0;entryY=0;entryDx=0;entryDy=0;" edge="1" parent="1VJ9Bwc3jtJmsIAEEO2N-245">
          <mxGeometry width="50" height="50" relative="1" as="geometry">
            <mxPoint x="428.97" y="377.7800000000001" as="sourcePoint" />
            <mxPoint x="464.97" y="377.7800000000001" as="targetPoint" />
          </mxGeometry>
        </mxCell>
        <mxCell id="1VJ9Bwc3jtJmsIAEEO2N-214" value="selesai" style="rounded=1;whiteSpace=wrap;html=1;" vertex="1" parent="1VJ9Bwc3jtJmsIAEEO2N-245">
          <mxGeometry x="368.66999999999996" y="405.7900000000001" width="60" height="30" as="geometry" />
        </mxCell>
        <mxCell id="1VJ9Bwc3jtJmsIAEEO2N-215" value="" style="edgeStyle=orthogonalEdgeStyle;rounded=0;orthogonalLoop=1;jettySize=auto;html=1;" edge="1" parent="1VJ9Bwc3jtJmsIAEEO2N-245" target="1VJ9Bwc3jtJmsIAEEO2N-217">
          <mxGeometry relative="1" as="geometry">
            <mxPoint x="441.75" y="265.85" as="sourcePoint" />
          </mxGeometry>
        </mxCell>
        <mxCell id="1VJ9Bwc3jtJmsIAEEO2N-216" style="edgeStyle=orthogonalEdgeStyle;rounded=0;orthogonalLoop=1;jettySize=auto;html=1;exitX=0.5;exitY=0;exitDx=0;exitDy=0;entryX=1;entryY=0.5;entryDx=0;entryDy=0;" edge="1" parent="1VJ9Bwc3jtJmsIAEEO2N-245" source="1VJ9Bwc3jtJmsIAEEO2N-217" target="1VJ9Bwc3jtJmsIAEEO2N-205">
          <mxGeometry relative="1" as="geometry">
            <Array as="points">
              <mxPoint x="532" y="102" />
            </Array>
          </mxGeometry>
        </mxCell>
        <mxCell id="1VJ9Bwc3jtJmsIAEEO2N-217" value="menu tidak&lt;div&gt;tersedia&lt;/div&gt;" style="shape=parallelogram;perimeter=parallelogramPerimeter;whiteSpace=wrap;html=1;fixedSize=1;" vertex="1" parent="1VJ9Bwc3jtJmsIAEEO2N-245">
          <mxGeometry x="471.75" y="240.85000000000002" width="120.25" height="50" as="geometry" />
        </mxCell>
        <mxCell id="1VJ9Bwc3jtJmsIAEEO2N-218" value="" style="endArrow=classic;html=1;rounded=0;entryX=0;entryY=0;entryDx=0;entryDy=0;" edge="1" parent="1VJ9Bwc3jtJmsIAEEO2N-245">
          <mxGeometry width="50" height="50" relative="1" as="geometry">
            <mxPoint x="562.1800000000001" y="282.85" as="sourcePoint" />
            <mxPoint x="598.1800000000001" y="282.85" as="targetPoint" />
          </mxGeometry>
        </mxCell>
        <mxCell id="1VJ9Bwc3jtJmsIAEEO2N-219" value="" style="edgeStyle=orthogonalEdgeStyle;rounded=0;orthogonalLoop=1;jettySize=auto;html=1;" edge="1" parent="1VJ9Bwc3jtJmsIAEEO2N-245" source="1VJ9Bwc3jtJmsIAEEO2N-220" target="1VJ9Bwc3jtJmsIAEEO2N-226">
          <mxGeometry relative="1" as="geometry" />
        </mxCell>
        <mxCell id="1VJ9Bwc3jtJmsIAEEO2N-220" value="input menu" style="shape=parallelogram;perimeter=parallelogramPerimeter;whiteSpace=wrap;html=1;fixedSize=1;" vertex="1" parent="1VJ9Bwc3jtJmsIAEEO2N-245">
          <mxGeometry x="34.75" y="155.5" width="110" height="47.85" as="geometry" />
        </mxCell>
        <mxCell id="1VJ9Bwc3jtJmsIAEEO2N-221" value="" style="endArrow=classic;html=1;rounded=0;entryX=0;entryY=0;entryDx=0;entryDy=0;" edge="1" parent="1VJ9Bwc3jtJmsIAEEO2N-245">
          <mxGeometry width="50" height="50" relative="1" as="geometry">
            <mxPoint x="20" y="163.5" as="sourcePoint" />
            <mxPoint x="56" y="163.5" as="targetPoint" />
          </mxGeometry>
        </mxCell>
        <mxCell id="1VJ9Bwc3jtJmsIAEEO2N-222" value="" style="edgeStyle=orthogonalEdgeStyle;rounded=0;orthogonalLoop=1;jettySize=auto;html=1;" edge="1" parent="1VJ9Bwc3jtJmsIAEEO2N-245" source="1VJ9Bwc3jtJmsIAEEO2N-226" target="1VJ9Bwc3jtJmsIAEEO2N-228">
          <mxGeometry relative="1" as="geometry" />
        </mxCell>
        <mxCell id="1VJ9Bwc3jtJmsIAEEO2N-223" value="ya" style="edgeLabel;html=1;align=center;verticalAlign=middle;resizable=0;points=[];" vertex="1" connectable="0" parent="1VJ9Bwc3jtJmsIAEEO2N-222">
          <mxGeometry x="0.4572" relative="1" as="geometry">
            <mxPoint y="-11" as="offset" />
          </mxGeometry>
        </mxCell>
        <mxCell id="1VJ9Bwc3jtJmsIAEEO2N-224" value="" style="edgeStyle=orthogonalEdgeStyle;rounded=0;orthogonalLoop=1;jettySize=auto;html=1;" edge="1" parent="1VJ9Bwc3jtJmsIAEEO2N-245" source="1VJ9Bwc3jtJmsIAEEO2N-226" target="1VJ9Bwc3jtJmsIAEEO2N-233">
          <mxGeometry relative="1" as="geometry" />
        </mxCell>
        <mxCell id="1VJ9Bwc3jtJmsIAEEO2N-225" value="tidak" style="edgeLabel;html=1;align=center;verticalAlign=middle;resizable=0;points=[];" vertex="1" connectable="0" parent="1VJ9Bwc3jtJmsIAEEO2N-224">
          <mxGeometry x="-0.0088" y="2" relative="1" as="geometry">
            <mxPoint as="offset" />
          </mxGeometry>
        </mxCell>
        <mxCell id="1VJ9Bwc3jtJmsIAEEO2N-226" value="menu = 1" style="rhombus;whiteSpace=wrap;html=1;" vertex="1" parent="1VJ9Bwc3jtJmsIAEEO2N-245">
          <mxGeometry x="49.75" y="225.8549999999998" width="80" height="80" as="geometry" />
        </mxCell>
        <mxCell id="1VJ9Bwc3jtJmsIAEEO2N-227" value="" style="edgeStyle=orthogonalEdgeStyle;rounded=0;orthogonalLoop=1;jettySize=auto;html=1;" edge="1" parent="1VJ9Bwc3jtJmsIAEEO2N-245" source="1VJ9Bwc3jtJmsIAEEO2N-228" target="1VJ9Bwc3jtJmsIAEEO2N-231">
          <mxGeometry relative="1" as="geometry" />
        </mxCell>
        <mxCell id="1VJ9Bwc3jtJmsIAEEO2N-228" value="menampilkan&lt;div&gt;data pelanggan&lt;/div&gt;" style="shape=parallelogram;perimeter=parallelogramPerimeter;whiteSpace=wrap;html=1;fixedSize=1;" vertex="1" parent="1VJ9Bwc3jtJmsIAEEO2N-245">
          <mxGeometry x="29.75" y="335.8599999999999" width="120.25" height="50" as="geometry" />
        </mxCell>
        <mxCell id="1VJ9Bwc3jtJmsIAEEO2N-229" value="" style="endArrow=classic;html=1;rounded=0;entryX=0;entryY=0;entryDx=0;entryDy=0;" edge="1" parent="1VJ9Bwc3jtJmsIAEEO2N-245">
          <mxGeometry width="50" height="50" relative="1" as="geometry">
            <mxPoint x="116.75" y="378.8599999999999" as="sourcePoint" />
            <mxPoint x="152.75" y="378.8599999999999" as="targetPoint" />
          </mxGeometry>
        </mxCell>
        <mxCell id="1VJ9Bwc3jtJmsIAEEO2N-230" style="edgeStyle=orthogonalEdgeStyle;rounded=0;orthogonalLoop=1;jettySize=auto;html=1;exitX=0.5;exitY=1;exitDx=0;exitDy=0;entryX=0;entryY=0.5;entryDx=0;entryDy=0;" edge="1" parent="1VJ9Bwc3jtJmsIAEEO2N-245" source="1VJ9Bwc3jtJmsIAEEO2N-231" target="1VJ9Bwc3jtJmsIAEEO2N-205">
          <mxGeometry relative="1" as="geometry">
            <Array as="points">
              <mxPoint x="90" y="486" />
              <mxPoint y="486" />
              <mxPoint y="102" />
            </Array>
          </mxGeometry>
        </mxCell>
        <mxCell id="1VJ9Bwc3jtJmsIAEEO2N-231" value="enter untuk&lt;div&gt;memilih lagi&lt;/div&gt;" style="shape=parallelogram;perimeter=parallelogramPerimeter;whiteSpace=wrap;html=1;fixedSize=1;" vertex="1" parent="1VJ9Bwc3jtJmsIAEEO2N-245">
          <mxGeometry x="29.629999999999995" y="415.8599999999999" width="120.25" height="50" as="geometry" />
        </mxCell>
        <mxCell id="1VJ9Bwc3jtJmsIAEEO2N-232" value="" style="endArrow=classic;html=1;rounded=0;entryX=0;entryY=0;entryDx=0;entryDy=0;" edge="1" parent="1VJ9Bwc3jtJmsIAEEO2N-245">
          <mxGeometry width="50" height="50" relative="1" as="geometry">
            <mxPoint x="19" y="425.8599999999999" as="sourcePoint" />
            <mxPoint x="55" y="425.8599999999999" as="targetPoint" />
          </mxGeometry>
        </mxCell>
        <mxCell id="1VJ9Bwc3jtJmsIAEEO2N-233" value="menu = 2" style="rhombus;whiteSpace=wrap;html=1;" vertex="1" parent="1VJ9Bwc3jtJmsIAEEO2N-245">
          <mxGeometry x="209.75" y="225.8549999999998" width="80" height="80" as="geometry" />
        </mxCell>
        <mxCell id="1VJ9Bwc3jtJmsIAEEO2N-234" value="" style="edgeStyle=orthogonalEdgeStyle;rounded=0;orthogonalLoop=1;jettySize=auto;html=1;entryX=0.5;entryY=0;entryDx=0;entryDy=0;exitX=0.5;exitY=1;exitDx=0;exitDy=0;" edge="1" parent="1VJ9Bwc3jtJmsIAEEO2N-245">
          <mxGeometry relative="1" as="geometry">
            <mxPoint x="251.5" y="394.0899999999999" as="sourcePoint" />
            <mxPoint x="250.875" y="422.0899999999999" as="targetPoint" />
            <Array as="points" />
          </mxGeometry>
        </mxCell>
        <mxCell id="1VJ9Bwc3jtJmsIAEEO2N-235" value="masukkan nama, tanggal, paket, dan harga baru" style="shape=parallelogram;perimeter=parallelogramPerimeter;whiteSpace=wrap;html=1;fixedSize=1;" vertex="1" parent="1VJ9Bwc3jtJmsIAEEO2N-245">
          <mxGeometry x="186.75" y="334.0899999999999" width="129.5" height="60" as="geometry" />
        </mxCell>
        <mxCell id="1VJ9Bwc3jtJmsIAEEO2N-236" value="" style="endArrow=classic;html=1;rounded=0;entryX=0;entryY=0;entryDx=0;entryDy=0;" edge="1" parent="1VJ9Bwc3jtJmsIAEEO2N-245">
          <mxGeometry width="50" height="50" relative="1" as="geometry">
            <mxPoint x="183.25" y="340.0899999999999" as="sourcePoint" />
            <mxPoint x="219.25" y="340.0899999999999" as="targetPoint" />
          </mxGeometry>
        </mxCell>
        <mxCell id="1VJ9Bwc3jtJmsIAEEO2N-237" value="data berhasil ditambahkan" style="shape=parallelogram;perimeter=parallelogramPerimeter;whiteSpace=wrap;html=1;fixedSize=1;" vertex="1" parent="1VJ9Bwc3jtJmsIAEEO2N-245">
          <mxGeometry x="191.75" y="422.0899999999999" width="120.25" height="50" as="geometry" />
        </mxCell>
        <mxCell id="1VJ9Bwc3jtJmsIAEEO2N-238" value="" style="endArrow=classic;html=1;rounded=0;entryX=0;entryY=0;entryDx=0;entryDy=0;" edge="1" parent="1VJ9Bwc3jtJmsIAEEO2N-245">
          <mxGeometry width="50" height="50" relative="1" as="geometry">
            <mxPoint x="279.25" y="461.0899999999999" as="sourcePoint" />
            <mxPoint x="315.25" y="461.0899999999999" as="targetPoint" />
          </mxGeometry>
        </mxCell>
        <mxCell id="1VJ9Bwc3jtJmsIAEEO2N-239" value="" style="edgeStyle=orthogonalEdgeStyle;rounded=0;orthogonalLoop=1;jettySize=auto;html=1;" edge="1" parent="1VJ9Bwc3jtJmsIAEEO2N-245" target="1VJ9Bwc3jtJmsIAEEO2N-241">
          <mxGeometry relative="1" as="geometry">
            <mxPoint x="251.25" y="467.0899999999999" as="sourcePoint" />
          </mxGeometry>
        </mxCell>
        <mxCell id="1VJ9Bwc3jtJmsIAEEO2N-240" style="edgeStyle=orthogonalEdgeStyle;rounded=0;orthogonalLoop=1;jettySize=auto;html=1;exitX=0.5;exitY=1;exitDx=0;exitDy=0;entryX=0;entryY=0.5;entryDx=0;entryDy=0;" edge="1" parent="1VJ9Bwc3jtJmsIAEEO2N-245" source="1VJ9Bwc3jtJmsIAEEO2N-241" target="1VJ9Bwc3jtJmsIAEEO2N-205">
          <mxGeometry relative="1" as="geometry">
            <Array as="points">
              <mxPoint x="252" y="567" />
              <mxPoint y="567" />
              <mxPoint y="102" />
            </Array>
          </mxGeometry>
        </mxCell>
        <mxCell id="1VJ9Bwc3jtJmsIAEEO2N-241" value="enter untuk&lt;div&gt;memilih lagi&lt;/div&gt;" style="shape=parallelogram;perimeter=parallelogramPerimeter;whiteSpace=wrap;html=1;fixedSize=1;" vertex="1" parent="1VJ9Bwc3jtJmsIAEEO2N-245">
          <mxGeometry x="191.75" y="497.0899999999999" width="120.25" height="50" as="geometry" />
        </mxCell>
        <mxCell id="1VJ9Bwc3jtJmsIAEEO2N-242" value="" style="endArrow=classic;html=1;rounded=0;entryX=0;entryY=0;entryDx=0;entryDy=0;" edge="1" parent="1VJ9Bwc3jtJmsIAEEO2N-245">
          <mxGeometry width="50" height="50" relative="1" as="geometry">
            <mxPoint x="183.25" y="504.0899999999999" as="sourcePoint" />
            <mxPoint x="219.25" y="504.0899999999999" as="targetPoint" />
          </mxGeometry>
        </mxCell>
        <mxCell id="1VJ9Bwc3jtJmsIAEEO2N-243" style="edgeStyle=orthogonalEdgeStyle;rounded=0;orthogonalLoop=1;jettySize=auto;html=1;exitX=0.5;exitY=1;exitDx=0;exitDy=0;entryX=0.477;entryY=-0.024;entryDx=0;entryDy=0;entryPerimeter=0;" edge="1" parent="1VJ9Bwc3jtJmsIAEEO2N-245" source="1VJ9Bwc3jtJmsIAEEO2N-233" target="1VJ9Bwc3jtJmsIAEEO2N-235">
          <mxGeometry relative="1" as="geometry" />
        </mxCell>
        <mxCell id="1VJ9Bwc3jtJmsIAEEO2N-244" value="ya" style="edgeLabel;html=1;align=center;verticalAlign=middle;resizable=0;points=[];" vertex="1" connectable="0" parent="1VJ9Bwc3jtJmsIAEEO2N-243">
          <mxGeometry x="-0.0882" relative="1" as="geometry">
            <mxPoint as="offset" />
          </mxGeometry>
        </mxCell>
      </root>
    </mxGraphModel>
  </diagram>
</mxfile>
